<?xml version="1.0" encoding="UTF-8"?>
<!DOCTYPE svg PUBLIC "-//W3C//DTD SVG 1.1//EN" "http://www.w3.org/Graphics/SVG/1.1/DTD/svg11.dtd">
<!-- Creator: CorelDRAW -->
<svg xmlns="http://www.w3.org/2000/svg" xml:space="preserve" width="1.80343in" height="0.251634in" version="1.1" style="shape-rendering:geometricPrecision; text-rendering:geometricPrecision; image-rendering:optimizeQuality; fill-rule:evenodd; clip-rule:evenodd"
viewBox="0 0 1803.09 251.59"
 xmlns:xlink="http://www.w3.org/1999/xlink"
 xmlns:xodm="http://www.corel.com/coreldraw/odm/2003">
 <defs>
  <style type="text/css">
   <![CDATA[
    .fil2 {fill:#3F54A3;fill-rule:nonzero}
    .fil1 {fill:#67BECE;fill-rule:nonzero}
    .fil0 {fill:#F9C7C5;fill-rule:nonzero}
   ]]>
  </style>
 </defs>
 <g id="Layer_x0020_1">
  <metadata id="CorelCorpID_0Corel-Layer"/>
  <g id="_2338797748368">
   <g>
    <path class="fil0" d="M440.07 33.77c-0.53,0.5 -1.24,0.78 -1.97,0.78 -0.06,0 -0.11,0 -0.17,-0l-67.23 -0c-0.65,0 -0.98,0.32 -0.98,0.97l0 41.15c0,0.65 0.32,0.97 0.98,0.97l45.78 0c0.9,0 1.6,0.26 2.11,0.77 0.52,0.52 0.77,1.23 0.77,2.13l0 10.24c0.01,0.05 0.01,0.11 0.01,0.17 0,0.73 -0.28,1.43 -0.78,1.96 -0.52,0.5 -1.22,0.78 -1.94,0.78 -0.06,0 -0.11,-0 -0.17,-0l-45.79 0c-0.65,0 -0.98,0.32 -0.98,0.97l0 56.22c0.01,0.06 0.01,0.11 0.01,0.17 0,0.72 -0.28,1.42 -0.78,1.95 -0.53,0.5 -1.22,0.78 -1.95,0.78 -0.06,0 -0.11,-0 -0.17,-0l-12.76 0c-0.06,0 -0.11,0 -0.17,0 -0.73,0 -1.43,-0.28 -1.96,-0.78 -0.49,-0.53 -0.77,-1.22 -0.77,-1.95 0,-0.06 0,-0.12 0,-0.18l0 -129.45c0,-0.9 0.25,-1.6 0.76,-2.13 0.54,-0.5 1.25,-0.78 1.98,-0.78 0.05,0 0.1,0 0.16,0l83.84 0c0.91,0 1.6,0.26 2.13,0.77 0.51,0.54 0.78,1.25 0.78,1.98 0,0.05 0,0.1 -0,0.15l0 10.24c0,0.05 0,0.11 0,0.16 0,0.74 -0.28,1.44 -0.78,1.98l-0 0zm72.84 22.8c1.41,0.77 1.94,2 1.54,3.68l-2.71 12.56c-0.15,1.29 -0.77,1.94 -1.94,1.94 -0.06,0 -0.11,0 -0.17,0 -0.46,0 -0.93,-0.07 -1.37,-0.2 -2.02,-0.64 -4.14,-0.97 -6.27,-0.97 -0.1,0 -0.2,0 -0.3,0 -0.12,0 -0.24,-0 -0.35,-0 -0.86,0 -1.72,0.07 -2.56,0.2 -6.05,0.26 -11.05,2.35 -14.98,6.29 -3.92,3.92 -5.88,9.05 -5.88,15.36l0 55.45c0,0.06 0.01,0.11 0.01,0.17 0,0.72 -0.28,1.42 -0.78,1.95 -0.53,0.5 -1.23,0.78 -1.96,0.78 -0.06,0 -0.11,0 -0.17,-0l-12.76 0c-0.06,-0 -0.11,0 -0.17,0 -0.72,0 -1.42,-0.28 -1.94,-0.78 -0.53,-0.51 -0.77,-1.22 -0.77,-2.13l0 -92.56c0,-0.9 0.24,-1.6 0.77,-2.11 0.52,-0.5 1.22,-0.78 1.94,-0.78 0.06,0 0.11,0 0.17,0l12.76 0c0.9,0 1.6,0.25 2.13,0.77 0.52,0.51 0.77,1.22 0.77,2.11l0 8.9c0,0.52 0.09,0.81 0.29,0.87 0.19,0.06 0.41,-0.1 0.67,-0.49 5.8,-8.76 13.65,-13.13 23.58,-13.13 3.87,0 7.35,0.7 10.45,2.11l0 -0zm36.79 91.49c-7.02,-4.83 -11.95,-11.56 -14.78,-20.19 -2.32,-6.95 -3.48,-14.81 -3.48,-23.57 0,-9.14 1.08,-16.87 3.28,-23.19 2.82,-8.5 7.79,-15.16 14.87,-20 7.09,-4.83 15.52,-7.24 25.32,-7.24 9.28,0 17.36,2.41 24.26,7.24 6.87,4.83 11.81,11.43 14.77,19.8 2.32,6.57 3.48,14.3 3.48,23.19 0,9.01 -1.16,16.93 -3.48,23.76 -2.82,8.63 -7.73,15.37 -14.67,20.19 -6.96,4.83 -15.14,7.24 -24.54,7.24 -9.66,0.01 -18.01,-2.4 -25.03,-7.23l0 0zm38.55 -13.14c3.87,-2.9 6.63,-6.99 8.31,-12.28 1.42,-4.9 2.13,-10.95 2.13,-18.15 0,-7.21 -0.65,-13.21 -1.94,-17.98 -1.68,-5.28 -4.45,-9.36 -8.31,-12.27 -3.87,-2.9 -8.57,-4.35 -14.1,-4.35 -5.29,0 -9.84,1.46 -13.71,4.35 -3.87,2.9 -6.64,6.99 -8.32,12.27 -1.42,4.51 -2.11,10.5 -2.11,17.98 0,7.47 0.7,13.53 2.11,18.15 1.54,5.29 4.29,9.37 8.22,12.28 3.92,2.9 8.66,4.34 14.19,4.34 0.14,-0 0.3,0 0.44,0 4.72,0 9.31,-1.53 13.08,-4.35l0 0zm127.13 -71.68c6.19,6.12 9.28,14.39 9.28,24.83l0 62.79c0.01,0.05 0.01,0.1 0.01,0.15 0,0.73 -0.28,1.43 -0.78,1.96 -0.53,0.5 -1.24,0.78 -1.96,0.78 -0.06,0 -0.11,0 -0.17,-0l-12.75 0c-0.06,-0 -0.11,0 -0.17,0 -0.72,0 -1.42,-0.28 -1.95,-0.78 -0.5,-0.53 -0.78,-1.22 -0.78,-1.95 0,-0.06 0,-0.12 0,-0.18l0 -59.11c0,-6.44 -1.87,-11.66 -5.6,-15.65 -3.73,-3.99 -8.7,-5.99 -14.88,-5.99 -5.53,0 -10.21,1.65 -14.01,4.94 -3.8,3.28 -6.03,7.7 -6.66,13.24l0 62.6c0,0.05 0,0.1 0,0.16 0,0.73 -0.28,1.43 -0.78,1.96 -0.53,0.5 -1.24,0.78 -1.96,0.78 -0.06,0 -0.11,0 -0.17,-0l-12.76 0c-0.05,-0 -0.11,0 -0.17,0 -0.72,0 -1.42,-0.28 -1.94,-0.78 -0.5,-0.53 -0.78,-1.22 -0.78,-1.95 0,-0.06 0,-0.12 0,-0.18l0 -92.56c0,-0.9 0.25,-1.6 0.77,-2.11 0.53,-0.5 1.22,-0.78 1.95,-0.78 0.06,0 0.11,0 0.17,0l12.75 0c0.91,0 1.61,0.25 2.13,0.77 0.51,0.53 0.78,1.23 0.78,1.96 0,0.05 0,0.1 -0,0.15l0 5.42c0,0.39 0.13,0.65 0.39,0.77 0.24,0.13 0.45,0.07 0.57,-0.2 5.42,-6.82 13.53,-10.23 24.35,-10.23 10.56,0 18.95,3.05 25.12,9.16l-0.01 0zm88.3 6.66c-0.53,0.5 -1.23,0.78 -1.96,0.78 -0.06,0 -0.11,0 -0.17,-0l-19.72 0c-0.65,0 -0.96,0.32 -0.96,0.97l0 50.43c0,5.54 1.18,9.47 3.57,11.79 2.39,2.32 6.22,3.48 11.5,3.48l4.63 0c0.91,0 1.61,0.26 2.13,0.77 0.5,0.53 0.78,1.24 0.78,1.97 0,0.05 0,0.1 -0,0.15l0 10.05c0,1.81 -0.97,2.83 -2.9,3.09l-7.92 0.2c-9.92,0 -17.33,-1.74 -22.22,-5.22 -4.9,-3.48 -7.34,-9.98 -7.34,-19.52l-0 -57.19c0,-0.65 -0.32,-0.97 -0.98,-0.97l-10.62 0c-0.05,0 -0.11,0 -0.17,0 -0.73,0 -1.43,-0.28 -1.96,-0.78 -0.5,-0.53 -0.78,-1.22 -0.78,-1.95 0,-0.06 0,-0.12 0,-0.18l0 -9.47c0,-0.9 0.25,-1.6 0.77,-2.11 0.53,-0.5 1.23,-0.78 1.96,-0.78 0.06,0 0.11,0 0.17,0l10.62 0c0.65,0 0.98,-0.32 0.98,-0.97l0 -21.64c0,-0.91 0.25,-1.6 0.77,-2.13 0.52,-0.5 1.22,-0.78 1.94,-0.78 0.06,0 0.11,0 0.17,0l11.97 0c0.91,0 1.6,0.25 2.13,0.77 0.51,0.52 0.77,1.22 0.77,2.13l0 21.64c0,0.65 0.31,0.97 0.96,0.97l19.72 0c0.9,0 1.6,0.25 2.13,0.77 0.52,0.51 0.77,1.22 0.77,2.11l0 9.47c0.01,0.07 0.01,0.14 0.01,0.2 0,0.72 -0.28,1.41 -0.77,1.92l-0 0zm89.85 57.38c0.65,-1.16 1.35,-1.74 2.13,-1.74 0.65,0 1.22,0.2 1.73,0.58l7.94 4.83c1.03,0.65 1.54,1.49 1.54,2.51l-0.39 1.54c-3.42,6.25 -8.56,11.42 -14.79,14.88 -6.36,3.61 -13.81,5.42 -22.32,5.42 -9.14,0 -16.87,-2.02 -23.19,-6.08 -6.3,-4.06 -11.07,-9.88 -14.29,-17.5 -3.23,-7.85 -4.83,-17.07 -4.83,-27.62 0,-9.4 0.71,-16.55 2.13,-21.45 2.32,-8.9 6.95,-15.9 13.9,-21.06 6.96,-5.14 15.4,-7.72 25.32,-7.72 12.24,0 21.57,3.19 28.01,9.56 6.44,6.37 10.62,15.62 12.55,27.72 0.65,4.77 1.09,10.57 1.37,17.39 0,1.94 -0.98,2.9 -2.9,2.9l-61.04 0c-0.65,0 -0.98,0.31 -0.98,0.97 0.26,4.9 0.71,8.37 1.37,10.42 1.41,5.16 4.25,9.22 8.5,12.17 4.25,2.97 9.52,4.45 15.84,4.45 10.44,-0.13 17.91,-4.2 22.42,-12.19zm-38.93 -53.32c-3.55,2.71 -5.96,6.45 -7.25,11.21 -1,3.52 -1.59,7.16 -1.72,10.82 0,0.65 0.31,0.97 0.96,0.97l43.87 0c0.65,0 0.97,-0.32 0.97,-0.97 -0.26,-4.25 -0.65,-7.4 -1.16,-9.47 -1.11,-4.76 -3.81,-9.01 -7.62,-12.08 -3.8,-3.03 -8.54,-4.55 -14.21,-4.55 -5.66,0 -10.3,1.35 -13.83,4.06l-0 0zm152.91 -10.73c6.19,6.12 9.28,14.39 9.28,24.83l0 62.79c0.01,0.05 0.01,0.11 0.01,0.17 0,0.72 -0.28,1.42 -0.78,1.95 -0.53,0.5 -1.22,0.78 -1.95,0.78 -0.06,0 -0.11,-0 -0.17,-0l-12.76 0c-0.06,0 -0.11,0 -0.17,0 -0.73,0 -1.43,-0.28 -1.96,-0.78 -0.5,-0.53 -0.78,-1.22 -0.78,-1.95 0,-0.06 0,-0.12 0,-0.18l0 -59.11c0,-6.44 -1.87,-11.66 -5.6,-15.65 -3.74,-3.99 -8.7,-5.99 -14.88,-5.99 -5.54,0 -10.19,1.65 -14.01,4.94 -3.81,3.29 -6.02,7.7 -6.68,13.24l0 62.6c0,0.06 0.01,0.11 0.01,0.17 0,0.72 -0.28,1.42 -0.78,1.95 -0.52,0.5 -1.22,0.78 -1.94,0.78 -0.06,0 -0.11,-0 -0.17,-0l-12.76 0c-0.06,0 -0.12,0 -0.18,0 -0.72,0 -1.42,-0.28 -1.95,-0.78 -0.5,-0.53 -0.78,-1.23 -0.78,-1.95 0,-0.06 0,-0.12 0,-0.18l0 -92.56c0,-0.9 0.25,-1.6 0.77,-2.11 0.52,-0.5 1.22,-0.78 1.94,-0.78 0.06,0 0.12,0 0.18,0l12.76 0c0.9,0 1.6,0.25 2.11,0.77 0.52,0.51 0.77,1.22 0.77,2.11l0 5.42c0,0.39 0.13,0.65 0.39,0.77 0.26,0.13 0.45,0.07 0.59,-0.2 5.42,-6.82 13.53,-10.23 24.34,-10.23 10.57,0 18.93,3.05 25.11,9.16zm101.26 -43.95c0.53,-0.5 1.23,-0.78 1.96,-0.78 0.05,0 0.1,0 0.15,0l12.76 0c0.05,-0 0.1,-0 0.15,-0 0.73,0 1.44,0.28 1.98,0.78 0.52,0.52 0.77,1.23 0.77,2.13l0 129.46c0,0.05 0,0.11 0,0.17 0,0.72 -0.28,1.42 -0.78,1.95 -0.53,0.5 -1.23,0.78 -1.96,0.78 -0.06,0 -0.11,0 -0.17,-0l-12.76 0c-0.06,-0 -0.11,0 -0.17,0 -0.72,0 -1.42,-0.28 -1.94,-0.78 -0.53,-0.51 -0.77,-1.22 -0.77,-2.13l0 -5.02c0,-0.39 -0.15,-0.65 -0.39,-0.77 -0.26,-0.13 -0.53,-0.06 -0.77,0.2 -2.84,3.23 -6.16,5.71 -9.95,7.45 -3.79,1.73 -7.96,2.6 -12.45,2.6 -9.28,0 -16.98,-2.29 -23.09,-6.85 -6.12,-4.57 -10.6,-11.05 -13.42,-19.42 -2.32,-6.44 -3.48,-14.67 -3.48,-24.72 0,-9.4 0.96,-17.19 2.89,-23.38 2.71,-8.5 7.18,-15.13 13.42,-19.9 6.25,-4.76 14.13,-7.14 23.67,-7.14 4.51,0 8.66,0.83 12.45,2.51 3.79,1.67 7.11,4.13 9.95,7.33 0.24,0.26 0.51,0.35 0.77,0.29 0.24,-0.06 0.39,-0.29 0.39,-0.68l0 -41.92c0.01,-0.92 0.25,-1.63 0.78,-2.15l0 0zm-0.98 85.2c0,-10.57 -1.67,-18.81 -5.02,-24.74 -3.73,-6.57 -9.21,-9.85 -16.41,-9.85 -7.48,0 -13.21,3.09 -17.19,9.28 -4.13,6.45 -6.19,14.95 -6.19,25.51 0,9.92 1.61,17.9 4.83,23.95 3.73,7.09 9.92,10.63 18.55,10.63 7.34,0 12.93,-3.48 16.8,-10.44 3.09,-5.68 4.63,-13.79 4.63,-24.35l0 0zm97.58 48.5c-0.5,-0.53 -0.78,-1.23 -0.78,-1.95 0,-0.06 0,-0.12 0,-0.18l0 -129.45c0,-0.9 0.25,-1.6 0.77,-2.13 0.53,-0.5 1.23,-0.78 1.96,-0.78 0.05,0 0.1,0 0.15,0l12.95 0c1.54,0 2.71,0.65 3.48,1.94l32.45 51.78c0.39,0.77 0.77,0.77 1.16,0l32.66 -51.78c0.68,-1.2 1.95,-1.94 3.32,-1.94 0.05,0 0.11,0 0.16,0l12.93 -0c0.05,-0 0.1,-0 0.15,-0 0.73,0 1.44,0.28 1.98,0.78 0.52,0.52 0.77,1.23 0.77,2.13l0 129.46c0,0.05 0.01,0.11 0.01,0.17 0,0.72 -0.28,1.42 -0.78,1.95 -0.54,0.5 -1.24,0.78 -1.96,0.78 -0.06,0 -0.11,0 -0.17,-0l-12.76 0c-0.06,-0 -0.11,0 -0.17,0 -0.72,0 -1.42,-0.28 -1.94,-0.78 -0.53,-0.51 -0.77,-1.22 -0.77,-2.13l0 -98.14c0,-0.52 -0.15,-0.8 -0.39,-0.87 -0.26,-0.06 -0.53,0.1 -0.77,0.49l-26.27 42.89c-0.67,1.2 -1.94,1.94 -3.31,1.94 -0.06,0 -0.11,0 -0.17,-0l-6.18 0c-0.06,0 -0.11,0 -0.17,0 -1.37,0 -2.65,-0.74 -3.31,-1.94l-26.08 -42.89c-0.26,-0.39 -0.53,-0.55 -0.77,-0.49 -0.26,0.07 -0.39,0.35 -0.39,0.87l0 98.15c0,0.06 0,0.11 0,0.16 0,0.73 -0.28,1.43 -0.78,1.96 -0.53,0.5 -1.24,0.78 -1.97,0.78 -0.06,0 -0.11,0 -0.17,-0l-12.76 0c-0.05,0 -0.1,0 -0.15,0 -0.73,0 -1.43,-0.28 -1.96,-0.78zm202.1 -25.7c0.65,-1.16 1.37,-1.74 2.13,-1.74 0.01,0 0.01,0 0.02,0 0.62,0 1.22,0.2 1.71,0.58l7.92 4.83c1.03,0.65 1.54,1.49 1.54,2.51l-0.39 1.54c-3.42,6.24 -8.55,11.42 -14.77,14.88 -6.37,3.61 -13.81,5.42 -22.32,5.42 -9.16,0 -16.88,-2.02 -23.19,-6.08 -6.31,-4.06 -11.08,-9.88 -14.3,-17.5 -3.22,-7.85 -4.82,-17.07 -4.82,-27.62 0,-9.4 0.7,-16.55 2.11,-21.45 2.32,-8.9 6.96,-15.9 13.91,-21.06 6.96,-5.14 15.4,-7.72 25.31,-7.72 12.25,0 21.58,3.19 28.03,9.56 6.42,6.37 10.62,15.62 12.55,27.72 0.69,5.76 1.19,11.6 1.35,17.39 0,1.94 -0.97,2.9 -2.9,2.9l-61.04 0c-0.65,0 -0.97,0.31 -0.97,0.97 0.26,4.9 0.71,8.37 1.35,10.42 1.42,5.16 4.25,9.22 8.5,12.17 4.25,2.97 9.53,4.45 15.84,4.45 10.44,-0.13 17.91,-4.2 22.42,-12.19zm-38.94 -53.32c-3.54,2.71 -5.96,6.45 -7.24,11.21 -1.01,3.52 -1.61,7.16 -1.74,10.82 0,0.65 0.31,0.97 0.97,0.97l43.86 -0c0.65,0 0.98,-0.32 0.98,-0.97 -0.26,-4.25 -0.65,-7.4 -1.16,-9.47 -1.13,-4.76 -3.83,-9.01 -7.64,-12.07 -3.79,-3.03 -8.53,-4.55 -14.21,-4.55 -5.68,0 -10.29,1.35 -13.83,4.06l0 0zm152.93 -10.73c6.19,6.12 9.28,14.39 9.28,24.83l0 62.79c0,0.05 0.01,0.11 0.01,0.17 0,0.72 -0.28,1.42 -0.78,1.95 -0.52,0.5 -1.22,0.78 -1.94,0.78 -0.06,0 -0.11,-0 -0.17,-0l-12.76 0c-0.06,0 -0.11,0 -0.17,0 -0.73,0 -1.43,-0.28 -1.96,-0.78 -0.5,-0.53 -0.78,-1.22 -0.78,-1.95 0,-0.06 0,-0.12 0,-0.18l0 -59.11c0,-6.44 -1.87,-11.66 -5.6,-15.65 -3.74,-3.99 -8.7,-5.99 -14.88,-5.99 -5.54,0 -10.19,1.65 -14.01,4.94 -3.81,3.29 -6.02,7.7 -6.68,13.24l0 62.6c0,0.06 0.01,0.11 0.01,0.17 0,0.72 -0.28,1.42 -0.78,1.95 -0.53,0.5 -1.22,0.78 -1.95,0.78 -0.06,0 -0.11,-0 -0.17,-0l-12.76 0c-0.06,0 -0.12,0 -0.18,0 -0.72,0 -1.42,-0.28 -1.95,-0.78 -0.5,-0.53 -0.78,-1.23 -0.78,-1.95 0,-0.06 0,-0.12 0,-0.18l0 -92.56c0,-0.9 0.25,-1.6 0.77,-2.11 0.53,-0.5 1.22,-0.78 1.95,-0.78 0.06,0 0.12,0 0.18,0l12.76 0c0.9,0 1.6,0.25 2.11,0.77 0.52,0.51 0.77,1.22 0.77,2.11l0 5.42c0,0.39 0.13,0.65 0.39,0.77 0.26,0.13 0.45,0.07 0.59,-0.2 5.42,-6.82 13.53,-10.23 24.34,-10.23 10.56,0 18.93,3.05 25.11,9.16zm88.29 6.66c-0.53,0.5 -1.22,0.78 -1.95,0.78 -0.06,0 -0.12,-0 -0.18,-0l-19.7 0c-0.65,0 -0.98,0.32 -0.98,0.97l0 50.43c0,5.54 1.2,9.47 3.58,11.79 2.39,2.32 6.21,3.48 11.5,3.48l4.64 0c0.05,-0.01 0.1,-0.01 0.15,-0.01 0.73,0 1.44,0.28 1.98,0.78 0.52,0.52 0.77,1.23 0.77,2.13l0 10.05c0,1.81 -0.97,2.83 -2.9,3.09l-7.92 0.2c-9.92,0 -17.32,-1.74 -22.22,-5.22 -4.9,-3.48 -7.34,-9.98 -7.34,-19.52l-0 -57.19c0,-0.65 -0.31,-0.97 -0.96,-0.97l-10.64 0c-0.06,0 -0.12,0 -0.18,0 -0.72,0 -1.42,-0.28 -1.95,-0.78 -0.5,-0.53 -0.78,-1.22 -0.78,-1.95 0,-0.06 0,-0.12 0,-0.18l0 -9.47c0,-0.9 0.25,-1.6 0.77,-2.11 0.53,-0.5 1.22,-0.78 1.95,-0.78 0.06,0 0.12,0 0.18,0l10.63 0c0.65,0 0.96,-0.32 0.96,-0.97l0 -21.64c0,-0.91 0.26,-1.6 0.77,-2.13 0.53,-0.49 1.23,-0.77 1.96,-0.77 0.06,0 0.11,0 0.17,0l11.98 0c0.9,0 1.6,0.25 2.11,0.77 0.52,0.52 0.77,1.22 0.77,2.13l0 21.64c0,0.65 0.32,0.97 0.98,0.97l19.7 0c0.91,0 1.61,0.25 2.13,0.77 0.5,0.53 0.78,1.23 0.78,1.96 0,0.05 0,0.1 -0,0.15l0 9.47c0,0.07 0,0.14 0,0.2 0,0.72 -0.28,1.41 -0.77,1.92zm41.44 78.16c-7.02,-4.83 -11.93,-11.56 -14.77,-20.19 -2.32,-6.95 -3.48,-14.81 -3.48,-23.57 0,-9.14 1.08,-16.87 3.27,-23.19 2.82,-8.5 7.79,-15.16 14.88,-20 7.09,-4.83 15.52,-7.24 25.32,-7.24 9.28,0 17.35,2.41 24.25,7.24 6.88,4.83 11.82,11.43 14.78,19.8 2.32,6.57 3.48,14.3 3.48,23.19 0,9.01 -1.16,16.93 -3.48,23.76 -2.83,8.63 -7.73,15.37 -14.67,20.19 -6.96,4.83 -15.14,7.24 -24.55,7.24 -9.66,0.01 -18.01,-2.4 -25.03,-7.23zm38.54 -13.14c3.87,-2.9 6.63,-6.99 8.32,-12.28 1.41,-4.9 2.11,-10.95 2.11,-18.15 0,-7.21 -0.65,-13.21 -1.94,-17.98 -1.67,-5.28 -4.44,-9.36 -8.3,-12.27 -3.87,-2.9 -8.57,-4.35 -14.11,-4.35 -5.28,0 -9.84,1.46 -13.71,4.35 -3.87,2.9 -6.63,6.99 -8.31,12.27 -1.42,4.51 -2.13,10.5 -2.13,17.98 0,7.47 0.71,13.53 2.13,18.15 1.54,5.29 4.28,9.37 8.21,12.28 3.92,2.9 8.66,4.34 14.19,4.34 0.15,-0 0.3,0 0.44,0 4.72,0 9.31,-1.53 13.08,-4.35l0 0zm111.69 -78.35c1.42,0.77 1.94,2 1.54,3.68l-2.71 12.56c-0.13,1.29 -0.77,1.94 -1.94,1.94 -0.06,0 -0.11,0 -0.17,0 -0.46,0 -0.93,-0.07 -1.37,-0.2 -2.02,-0.64 -4.14,-0.97 -6.27,-0.97 -0.1,0 -0.2,0 -0.3,0 -1.29,0 -2.25,0.07 -2.9,0.2 -6.06,0.26 -11.05,2.35 -14.98,6.29 -3.92,3.92 -5.9,9.05 -5.9,15.36l0 55.45c0.01,0.06 0.01,0.11 0.01,0.17 0,0.72 -0.28,1.42 -0.78,1.95 -0.53,0.5 -1.22,0.78 -1.95,0.78 -0.06,0 -0.11,-0 -0.17,-0l-12.76 0c-0.06,0 -0.12,0 -0.18,0 -0.72,0 -1.42,-0.28 -1.95,-0.78 -0.5,-0.53 -0.78,-1.23 -0.78,-1.95 0,-0.06 0,-0.12 0,-0.18l0 -92.56c0,-0.9 0.25,-1.6 0.77,-2.11 0.53,-0.5 1.22,-0.78 1.95,-0.78 0.06,0 0.12,0 0.18,0l12.76 0c0.9,0 1.6,0.25 2.11,0.77 0.52,0.51 0.77,1.22 0.77,2.11l0 8.9c0,0.52 0.1,0.81 0.29,0.87 0.19,0.06 0.42,-0.1 0.68,-0.49 5.8,-8.76 13.65,-13.13 23.57,-13.13 3.87,0 7.35,0.7 10.45,2.11l-0 -0z"/>
   </g>
   <path class="fil1" d="M248.32 120.04c0,0 0,0 0,0 -1.1,0 -2.19,-0.23 -3.19,-0.68l-67.05 -30.03c-2.81,-1.26 -4.62,-4.05 -4.62,-7.13 0,-3.08 1.81,-5.87 4.61,-7.13l67.05 -29.92c1,-0.45 2.09,-0.68 3.18,-0.68 3.08,0 5.88,1.81 7.14,4.62 0.44,1 0.67,2.08 0.67,3.18 0,3.09 -1.81,5.89 -4.63,7.15l-51.08 22.8 51.09 22.88c2.82,1.26 4.63,4.05 4.63,7.13 0,4.31 -3.5,7.81 -7.81,7.81l-0 0z"/>
   <path class="fil2" d="M156.94 228.97c-73.71,0 -138.16,-49.76 -156.69,-121.02 -0.16,-0.64 -0.25,-1.3 -0.25,-1.97 0,-4.31 3.5,-7.81 7.81,-7.81 3.55,0 6.66,2.4 7.56,5.84 16.78,64.39 74.97,109.33 141.52,109.33 0,0 0.06,0 0.06,0 4.31,0 7.81,3.5 7.81,7.81 0,4.31 -3.5,7.81 -7.81,7.81l-0 0.01z"/>
   <path class="fil1" d="M130.03 164.1c-4.31,-0 -7.81,-3.5 -7.81,-7.81l-0 -148.48c0,-4.31 3.5,-7.81 7.81,-7.81 4.31,0 7.81,3.5 7.81,7.81l0 148.48c0,4.31 -3.5,7.81 -7.81,7.81l-0 0z"/>
   <g>
    <path class="fil0" d="M424.83 251.59c-0,0 -0.01,0 -0.02,0 -2.07,0 -4.05,-0.83 -5.5,-2.29l-34.09 -34.1 -34.09 34.09c-1.46,1.46 -3.45,2.28 -5.52,2.28 -4.31,0 -7.81,-3.5 -7.81,-7.81 0,-2.07 0.82,-4.06 2.29,-5.53l39.62 -39.62c1.46,-1.46 3.45,-2.29 5.52,-2.29 2.07,0 4.06,0.82 5.52,2.29l39.62 39.63c1.47,1.47 2.29,3.46 2.29,5.53 0,4.31 -3.5,7.81 -7.81,7.81 -0,0 -0.01,0 -0.02,0l-0 0z"/>
    <path class="fil0" d="M504.04 251.59c0,0 0,0 -0,0 -2.07,0 -4.05,-0.83 -5.51,-2.29l-34.09 -34.1 -34.08 34.09c-1.46,1.46 -3.45,2.28 -5.52,2.28 -4.31,0 -7.81,-3.5 -7.81,-7.81 0,-2.07 0.82,-4.06 2.29,-5.53l39.61 -39.62c1.5,-1.41 3.47,-2.19 5.53,-2.19 2.05,0 4.03,0.78 5.52,2.2l39.62 39.63c1.47,1.46 2.29,3.46 2.29,5.53 0,4.31 -3.5,7.81 -7.81,7.81 -0.01,0 -0.02,0 -0.02,0l-0.01 0z"/>
    <path class="fil0" d="M583.28 251.59c0,0 -0.01,0 -0.02,0 -2.07,0 -4.05,-0.83 -5.51,-2.29l-34.08 -34.1 -34.09 34.09c-1.46,1.46 -3.46,2.28 -5.53,2.28 -4.31,0 -7.81,-3.5 -7.81,-7.81 0,-2.07 0.82,-4.06 2.29,-5.53l39.62 -39.62c1.47,-1.46 3.45,-2.28 5.52,-2.28 2.07,0 4.05,0.82 5.52,2.28l39.61 39.63c1.47,1.46 2.29,3.46 2.29,5.53 0,4.31 -3.5,7.81 -7.81,7.81 0,0 -0,0 -0,0l-0 0z"/>
    <path class="fil0" d="M662.48 251.59c-0,0 -0,0 -0.01,0 -2.07,0 -4.05,-0.83 -5.5,-2.29l-34.09 -34.1 -34.09 34.09c-1.46,1.46 -3.45,2.28 -5.52,2.28 -4.31,0 -7.81,-3.5 -7.81,-7.81 0,-2.07 0.82,-4.06 2.29,-5.53l39.61 -39.62c1.5,-1.41 3.47,-2.19 5.53,-2.19 2.05,0 4.03,0.78 5.52,2.2l39.63 39.63c1.47,1.46 2.29,3.46 2.29,5.53 0,4.31 -3.5,7.81 -7.81,7.81 -0.01,0 -0.02,0 -0.04,0l0 0z"/>
    <path class="fil0" d="M741.72 251.59c0,0 -0,0 -0.01,0 -2.07,0 -4.05,-0.83 -5.51,-2.29l-34.1 -34.1 -34.07 34.09c-1.46,1.46 -3.45,2.28 -5.52,2.28 -4.31,0 -7.81,-3.5 -7.81,-7.81 0,-2.07 0.82,-4.06 2.29,-5.53l39.61 -39.62c1.5,-1.41 3.47,-2.19 5.53,-2.19 2.05,0 4.03,0.78 5.52,2.2l39.62 39.63c1.47,1.46 2.29,3.46 2.29,5.53 0,4.31 -3.5,7.81 -7.81,7.81 -0.01,0 -0.02,0 -0.02,0l-0 0z"/>
    <g>
     <path class="fil0" d="M820.93 251.59c-0,0 -0.01,0 -0.02,0 -2.07,0 -4.05,-0.83 -5.5,-2.29l-34.09 -34.1 -34.08 34.09c-1.46,1.46 -3.45,2.28 -5.52,2.28 -4.31,0 -7.81,-3.5 -7.81,-7.81 0,-2.07 0.82,-4.06 2.29,-5.53l39.61 -39.62c1.5,-1.41 3.47,-2.19 5.53,-2.19 2.05,0 4.03,0.78 5.52,2.2l39.62 39.63c1.47,1.46 2.29,3.46 2.29,5.53 0,4.31 -3.5,7.81 -7.81,7.81 -0.01,0 -0.02,0 -0.02,0l-0 0z"/>
     <path class="fil0" d="M900.15 251.59c0,0 -0,0 -0.01,0 -2.07,0 -4.05,-0.83 -5.51,-2.29l-34.09 -34.1 -34.08 34.09c-1.46,1.46 -3.45,2.28 -5.52,2.28 -4.31,0 -7.81,-3.5 -7.81,-7.81 0,-2.07 0.82,-4.06 2.29,-5.53l39.61 -39.62c1.5,-1.41 3.47,-2.19 5.53,-2.19 2.05,0 4.03,0.78 5.52,2.2l39.62 39.63c1.46,1.46 2.29,3.46 2.29,5.53 0,4.31 -3.5,7.81 -7.81,7.81 -0.01,0 -0.02,0 -0.02,0l-0 0z"/>
     <path class="fil0" d="M979.38 251.59c-0,0 -0.01,0 -0.02,0 -2.07,0 -4.05,-0.83 -5.51,-2.29l-34.08 -34.1 -34.09 34.09c-1.46,1.46 -3.46,2.28 -5.52,2.28 -4.31,0 -7.81,-3.5 -7.81,-7.81 0,-2.07 0.82,-4.06 2.29,-5.53l39.62 -39.62c1.46,-1.46 3.45,-2.28 5.52,-2.28 2.07,0 4.05,0.82 5.52,2.28l39.61 39.63c1.47,1.46 2.29,3.46 2.29,5.53 0,4.31 -3.5,7.81 -7.81,7.81 0,0 -0,0 -0,0l0 0z"/>
     <path class="fil0" d="M1058.58 251.59c-0.01,0 -0.01,0 -0.01,0 -2.07,0 -4.05,-0.83 -5.5,-2.29l-34.09 -34.1 -34.09 34.09c-1.46,1.46 -3.45,2.28 -5.52,2.28 -4.31,0 -7.81,-3.5 -7.81,-7.81 0,-2.07 0.82,-4.06 2.29,-5.53l39.62 -39.62c1.46,-1.46 3.45,-2.29 5.52,-2.29 2.07,0 4.06,0.82 5.52,2.29l39.62 39.63c1.47,1.47 2.29,3.46 2.29,5.53 0,4.31 -3.5,7.81 -7.81,7.81 -0.01,0 -0.02,0 -0.02,0l0 0z"/>
     <path class="fil0" d="M1137.82 251.59c-0,0 -0.01,0 -0.01,0 -2.07,0 -4.05,-0.83 -5.51,-2.29l-34.09 -34.1 -34.08 34.09c-1.46,1.46 -3.45,2.28 -5.52,2.28 -4.31,0 -7.81,-3.5 -7.81,-7.81 0,-2.07 0.82,-4.06 2.29,-5.53l39.61 -39.62c1.47,-1.46 3.45,-2.28 5.52,-2.28 2.07,0 4.05,0.82 5.52,2.28l39.62 39.63c1.47,1.46 2.29,3.46 2.29,5.53 0,4.31 -3.5,7.81 -7.81,7.81 -0,0 -0.01,0 -0.02,0l0 0z"/>
    </g>
   </g>
  </g>
 </g>
</svg>
